<svg id="레이어_1" data-name="레이어 1" xmlns="http://www.w3.org/2000/svg" viewBox="0 0 10.02 15.96"><defs><style>.cls-1{fill:#a5dcd4;}</style></defs><path class="cls-1" d="M12.42,1.92H3.73a.22.22,0,0,1-.2-.13.21.21,0,0,1,0-.23L4.23.62A.24.24,0,0,1,4.39.53L8,0h.07l3.65.51a.24.24,0,0,1,.16.09l.68.94a.21.21,0,0,1,0,.23A.22.22,0,0,1,12.42,1.92ZM4.17,1.47H12L11.61,1,8.08.48,4.54,1Z" transform="translate(-3.07 -0.02)"/><path class="cls-1" d="M12.5,2.65H3.65a.59.59,0,0,1,0-1.17H12.5a.59.59,0,0,1,0,1.17ZM3.65,1.93a.13.13,0,0,0-.13.13.13.13,0,0,0,.13.14H12.5a.13.13,0,0,0,.13-.14.13.13,0,0,0-.13-.13Z" transform="translate(-3.07 -0.02)"/><path class="cls-1" d="M8.1,16a10,10,0,0,1-2.82-.29c-.46-.15-.58-.32-.6-.42a.07.07,0,0,1,0,0L3.77,2.44a.19.19,0,0,1,.06-.17A.2.2,0,0,1,4,2.2h8.19a.23.23,0,0,1,.17.07.27.27,0,0,1,.06.17L11.5,15.23v0C11.43,15.54,10.9,16,8.1,16Zm-3-.86c.11.09.67.4,3,.4s2.86-.31,3-.39l.88-12.49H4.23Zm6.17.09Zm-.2-.1Zm-6,0Z" transform="translate(-3.07 -0.02)"/><circle class="cls-1" cx="2.91" cy="6.85" r="0.2"/><path class="cls-1" d="M6,6.78a.09.09,0,1,1-.09.09A.09.09,0,0,1,6,6.78m0-.23a.32.32,0,0,0-.32.32.32.32,0,1,0,.63,0A.31.31,0,0,0,6,6.55Z" transform="translate(-3.07 -0.02)"/><circle class="cls-1" cx="7.38" cy="6.73" r="0.2"/><path class="cls-1" d="M10.44,6.67a.09.09,0,1,1-.09.09.09.09,0,0,1,.09-.09m0-.23a.32.32,0,1,0,.32.32A.31.31,0,0,0,10.44,6.44Z" transform="translate(-3.07 -0.02)"/><path class="cls-1" d="M8.1,9.83h0a.23.23,0,0,1-.21-.14l-1-2.81a.2.2,0,0,1,0-.21.21.21,0,0,1,.19-.1l2.29.08a.27.27,0,0,1,.18.11.2.2,0,0,1,0,.21L8.31,9.7A.23.23,0,0,1,8.1,9.83ZM7.39,7l.74,2L9,7.09Z" transform="translate(-3.07 -0.02)"/></svg>