<svg xmlns="http://www.w3.org/2000/svg" viewBox="0 0 46 46" style="enable-background:new 0 0 46 46" xml:space="preserve"><path d="M16.6 8.2c0-.6-.1-1.3-.2-1.8H8v3.5h4.8c-.2 1.1-.8 2-1.8 2.7v2.3h3c1.7-1.6 2.6-4 2.6-6.7z" style="fill-rule:evenodd;clip-rule:evenodd;fill:#4285f4" transform="translate(15 15)"/><path d="M8 17c2.4 0 4.5-.8 6-2.2l-3-2.2c-.8.5-1.8.9-3 .9-2.3 0-4.3-1.6-5-3.7H0V12c1.4 3 4.5 5 8 5z" style="fill-rule:evenodd;clip-rule:evenodd;fill:#34a853" transform="translate(15 15)"/><path d="M3 9.7c-.2-.5-.3-1.1-.3-1.7s.1-1.2.3-1.7V4H0c-.6 1.2-1 2.6-1 4s.3 2.8 1 4l3-2.3z" style="fill-rule:evenodd;clip-rule:evenodd;fill:#fbbc05" transform="translate(15 15)"/><path d="M8 2.6c1.3 0 2.5.5 3.4 1.3L14 1.3C12.5-.1 10.4-1 8-1 4.5-1 1.4 1 0 4l3 2.3c.7-2.1 2.7-3.7 5-3.7z" style="fill-rule:evenodd;clip-rule:evenodd;fill:#ea4335" transform="translate(15 15)"/><path d="M-1-1h18v18H-1V-1z" style="fill:none" transform="translate(15 15)"/></svg>